
<svg width="180" height="50" viewBox="0 0 180 50" fill="none" xmlns="http://www.w3.org/2000/svg">
<path fill-rule="evenodd" clip-rule="evenodd" d="M0 49.7872L8.71943 0H39.8418C43.4173 0.282693 50.8274 2.90841 51.8634 11.1497C52.9522 19.8119 52.0116 24.3296 51.4151 27.1942C51.3022 27.7364 51.2017 28.2194 51.1295 28.6601C50.767 30.8751 45.7123 47.1183 36.5396 49.7872H22.6835H11.8489H0ZM11.5673 39.7602H20.3606L23.1754 28.2862L31.047 28.4858L33.2889 21.0526L25.3426 21.327L26.8123 17.1864L39.0929 17.336L41.3099 9.9777H20.1862L11.094 39.7602H11.5673Z" fill="#C20C18"/>
<path d="M62.322 17.0887C63.774 17.2087 65.118 17.5687 66.354 18.1687C67.59 18.7687 68.568 19.5247 69.288 20.4367C70.008 21.3367 70.368 22.2847 70.368 23.2807C70.368 24.1567 69.984 25.1227 69.216 26.1787C68.448 27.2347 67.512 28.1287 66.408 28.8607C65.316 29.5927 64.32 29.9587 63.42 29.9587C63.12 29.9587 62.736 29.8087 62.268 29.5087C61.812 29.2087 61.41 28.8667 61.062 28.4827C60.714 28.0867 60.54 27.7747 60.54 27.5467C60.54 27.3427 60.66 26.7727 60.9 25.8367C61.14 24.8647 61.338 23.9887 61.494 23.2087C61.554 22.9087 61.686 22.3807 61.89 21.6247C61.914 21.5167 61.974 21.3007 62.07 20.9767C62.166 20.6407 62.238 20.3347 62.286 20.0587L61.548 20.0227C61.356 19.6387 61.26 19.2547 61.26 18.8707C61.26 18.5107 61.35 18.1807 61.53 17.8807C61.71 17.5687 61.974 17.3047 62.322 17.0887ZM63.42 27.6007C64.62 26.9767 65.616 26.2147 66.408 25.3147C67.212 24.4147 67.614 23.5687 67.614 22.7767C67.614 22.3087 67.332 21.8587 66.768 21.4267C66.216 20.9947 65.58 20.7067 64.86 20.5627C64.716 21.2947 64.5 22.3447 64.212 23.7127C63.852 25.4167 63.588 26.7127 63.42 27.6007ZM79.4377 17.2687C79.6657 17.4007 79.8337 17.5867 79.9417 17.8267C80.0617 18.0547 80.1217 18.3067 80.1217 18.5827C80.1217 18.8227 80.0737 19.0627 79.9778 19.3027C79.8818 19.5427 79.7558 19.7407 79.5997 19.8967C78.0517 19.9207 76.7617 19.9807 75.7297 20.0767C75.5257 20.8087 75.3337 21.6247 75.1537 22.5247C76.3538 22.4287 77.3678 22.2847 78.1958 22.0927C78.4358 22.2367 78.6158 22.4287 78.7358 22.6687C78.8678 2.8967 78.9337 23.1487 78.9337 23.4247C78.9337 23.6767 78.8797 23.9167 78.7717 24.1447C78.6758 24.3607 78.5378 24.5347 78.3577 24.6667C78.1297 24.6907 77.9077 24.7087 77.6917 24.7207C77.4758 24.7327 77.2658 24.7447 77.0617 24.7567L74.7397 24.9187L74.4157 26.5387L74.2357 27.4027C74.9678 27.3307 75.6278 27.2347 76.2158 27.1147C76.8157 26.9827 77.4457 26.8027 78.1057 26.5747C78.4417 26.7307 78.6997 26.9527 78.8798 27.2407C79.0718 27.5167 79.1678 27.8227 79.1678 28.1587C79.1678 28.6387 78.9818 29.0647 78.6097 29.4367C77.8658 29.5807 77.0318 29.6887 76.1077 29.7607C75.1837 29.8327 74.3257 29.8687 73.5337 29.8687C73.3177 29.8687 73.0357 29.7607 72.6877 29.5447C72.3397 29.3287 72.0277 29.0767 71.7517 28.7887C71.4877 28.5007 71.3557 28.2547 71.3557 28.0507C71.3557 27.8707 71.4937 27.1747 71.7697 25.9627C71.9737 25.0747 72.1717 24.1507 72.3637 23.1907C72.4957 22.5307 72.5617 22.2007 72.5617 22.2007C72.7537 21.2647 72.8797 20.5867 72.9397 20.1667L72.1837 20.2207C71.9557 20.1007 71.7697 19.9267 71.6257 19.6987C71.4937 19.4587 71.4277 19.2007 71.4277 18.9247C71.4277 18.4447 71.6137 18.0187 71.9857 17.6467C73.6297 17.6227 75.0577 17.5867 76.2697 17.5387C77.4937 17.4907 78.5497 17.4007 79.4377 17.2687ZM85.1114 29.8687C84.8834 29.8687 84.5534 29.7727 84.1214 29.5807C83.6894 29.3767 83.2874 29.1427 82.9154 28.8787C82.5554 28.6027 82.3514 28.3687 82.3034 28.1767C82.2434 27.9127 82.1354 26.8087 81.9794 24.8647C81.9314 24.0847 81.8894 23.5147 81.8534 23.1547C81.8294 22.8427 81.8054 22.6087 81.7814 22.4527C81.6254 20.8447 81.5474 19.6807 81.5474 18.9607C81.5474 18.1567 81.6374 17.7307 81.8174 17.6827C81.8654 17.6707 81.9434 17.6647 82.0514 17.6647C82.3154 17.6647 82.6394 17.7307 83.0234 17.8627C83.4194 17.9827 83.7674 18.1387 84.0674 18.3307C84.3674 18.5227 84.5414 18.7087 84.5894 18.8887C84.6134 18.9607 84.6254 19.2307 84.6254 19.6987C84.6254 20.3587 84.6074 21.1687 84.5714 22.1287C84.5234 23.6887 84.4994 24.8947 84.4994 25.7467V26.3947C85.5194 24.1627 86.6594 21.1687 87.9194 17.4127C88.2794 17.2927 88.6454 17.2327 89.0174 17.2327C89.5094 17.2327 89.9234 17.3647 90.2594 17.6287C90.6074 17.8927 90.8354 18.2947 90.9434 18.8347C87.5714 26.1907 85.6274 29.8687 85.1114 29.8687ZM100.127 17.2687C100.355 17.4007 100.523 17.5867 100.631 17.8267C100.75 18.0547 100.81 18.3067 100.81 18.5827C100.81 18.8227 100.763 19.0627 100.667 19.3027C100.571 19.5427 100.445 19.7407 100.289 19.8967C98.7405 19.9207 97.4505 19.9807 96.4185 20.0767C96.2145 20.8087 96.0225 21.6247 95.8425 22.5247C97.0425 22.4287 98.0565 22.2847 98.8845 22.0927C99.1245 22.2367 99.3045 22.4287 99.4245 22.6687C99.5565 22.8967 99.6225 23.1487 99.6225 23.4247C99.6225 23.6767 99.5685 23.9167 99.4605 24.1447C99.3645 24.3607 99.2265 24.5347 99.0465 24.6667C98.8185 24.6907 98.5965 24.7087 98.3805 24.7207C98.1645 24.7327 97.9545 24.7447 97.7505 24.7567L95.4285 24.9187L95.1045 26.5387L94.9245 27.4027C95.6565 27.3307 96.3165 27.2347 96.9045 27.1147C97.5045 26.9827 98.1345 26.8027 98.7945 26.5747C99.1305 26.7307 99.3885 26.9527 99.5685 27.2407C99.7605 27.5167 99.8565 27.8227 99.8565 28.1587C99.8565 28.6387 99.6705 29.0647 99.2985 29.4367C98.5545 29.5807 97.7205 29.6887 96.7965 29.7607C95.8725 29.8327 95.0145 29.8687 94.2225 29.8687C94.0065 29.8687 93.7245 29.7607 93.3765 29.5447C93.0285 29.3287 92.7165 29.0767 92.4405 28.7887C92.1765 28.5007 92.0445 28.2547 92.0445 28.0507C92.0445 27.8707 92.1825 27.1747 92.4585 25.9627C92.6625 25.0747 92.8605 24.1507 93.0525 23.1907C93.1845 22.5307 93.2505 22.2007 93.2505 22.2007C93.4425 21.2647 93.5685 20.5867 93.6285 20.1667L92.8725 20.2207C92.6445 20.1007 92.4585 19.9267 92.3145 19.6987C92.1825 19.4587 92.1165 19.2007 92.1165 18.9247C92.1165 18.4447 92.3025 18.0187 92.6745 17.6467C94.3185 17.6227 95.7465 17.5867 96.9585 17.5387C98.1825 17.4907 99.2385 17.4007 100.127 17.2687ZM108.492 26.5027C108.828 26.6587 109.086 26.8807 109.266 27.1687C109.458 27.4567 109.554 27.7687 109.554 28.1047C109.554 28.5967 109.368 29.0287 108.996 29.4007C108.252 29.5567 107.454 29.6767 106.602 29.7607C105.75 29.8447 104.982 29.8867 104.298 29.8867C104.01 29.8867 103.8 29.8807 103.668 29.8687C103.452 29.8567 103.17 29.7427 102.822 29.5267C102.486 29.3107 102.186 29.0647 101.922 28.7887C101.658 28.5007 101.526 28.2547 101.526 28.0507C101.526 27.8347 101.658 27.1567 101.922 26.0167C102.174 24.9487 102.408 23.8267 102.624 22.6507L102.768 21.8587C103.008 20.5027 103.23 19.3987 103.434 18.5467C103.65 17.6947 103.866 17.2687 104.082 17.2687C104.31 17.2687 104.616 17.3707 105 17.5747C105.384 17.7787 105.72 18.0187 106.008 18.2947C106.308 18.5707 106.458 18.8107 106.458 19.0147C106.458 19.1347 106.392 19.4287 106.26 19.8967C106.14 20.3527 106.068 20.6347 106.044 20.7427C105.648 22.1467 105.336 23.3707 105.108 24.4147C104.952 25.1587 104.718 26.1547 104.406 27.4027C105.81 27.2587 107.172 26.9587 108.492 26.5027ZM119.04 17.2687C119.268 17.4007 119.436 17.5867 119.544 17.8267C119.664 18.0547 119.724 18.3067 119.724 18.5827C119.724 18.8227 119.676 19.0627 119.58 19.3027C119.484 19.5427 119.358 19.7407 119.202 19.8967C117.834 19.9207 116.544 19.9807 115.332 20.0767C115.272 20.3287 115.146 20.8867 114.954 21.7507C114.93 21.8587 114.852 22.2367 114.72 22.8847C116.004 22.7767 117.018 22.6327 117.762 22.4527C118.002 22.5967 118.182 22.7887 118.302 23.0287C118.434 23.2567 118.5 23.5087 118.5 23.7847C118.5 24.0367 118.446 24.2767 118.338 24.5047C118.242 24.7207 118.104 24.8947 117.924 25.0267C117.696 25.0507 117.468 25.0687 117.24 25.0807C117.024 25.0927 116.814 25.1047 116.61 25.1167L114.36 25.2787C114.264 25.8907 114.168 26.6167 114.072 27.4567C113.964 28.3567 113.868 28.9867 113.784 29.3467C113.7 29.6947 113.562 29.8687 113.37 29.8687C113.07 29.8687 112.728 29.7667 112.344 29.5627C111.972 29.3467 111.648 29.1007 111.372 28.8247C111.108 28.5367 110.976 28.3027 110.976 28.1227C110.976 27.9427 111.036 27.5467 111.156 26.9347C111.288 26.3227 111.432 25.6627 111.588 24.9547C112.128 22.6267 112.446 21.0307 112.542 20.1667L111.786 20.2207C111.558 20.1007 111.372 19.9267 111.228 19.6987C111.096 19.4587 111.03 19.2007 111.03 18.9247C111.03 18.4447 111.216 18.0187 111.588 17.6467C113.232 17.6227 114.66 17.5867 115.872 17.5387C117.096 17.4907 118.152 17.4007 119.04 17.2687ZM124.523 17.0887C125.399 17.0887 126.227 17.2987 127.007 17.7187C127.799 18.1387 128.429 18.6967 128.897 19.3927C129.377 20.0767 129.617 20.7907 129.617 21.5347C129.617 22.6987 129.305 23.9467 128.681 25.2787C128.057 26.5987 127.265 27.7087 126.305 28.6087C125.357 29.5087 124.421 29.9587 123.497 29.9587C123.017 29.9587 122.477 29.7607 121.877 29.3647C121.289 28.9567 120.785 28.4767 120.365 27.9247C119.945 27.3607 119.735 26.8627 119.735 26.4307C119.735 25.7467 119.939 24.5707 120.347 22.9027C120.755 21.2227 121.133 19.9867 121.481 19.1947C121.877 19.0747 122.249 19.0147 122.597 19.0147C122.837 19.0147 123.029 19.0387 123.173 19.0867C123.149 18.6427 123.257 18.2347 123.497 17.8627C123.737 17.4907 124.079 17.2327 124.523 17.0887ZM122.669 27.4927C123.821 27.0727 124.787 26.2687 125.567 25.0807C126.347 23.8807 126.899 22.5667 127.223 21.1387C126.887 20.8987 126.449 20.7007 125.909 20.5447C125.381 20.3887 124.811 20.3047 124.199 20.2927C124.223 20.4127 124.247 20.5927 124.271 20.8327C123.167 22.8967 122.633 25.1167 122.669 27.4927ZM135.342 17.0887C136.218 17.0887 137.046 17.2987 137.826 17.7187C138.618 18.1387 139.248 18.6967 139.716 19.3927C140.196 20.0767 140.436 20.7907 140.436 21.5347C140.436 22.6987 140.124 23.9467 139.5 25.2787C138.876 26.5987 138.084 27.7087 137.124 28.6087C136.176 29.5087 135.24 29.9587 134.316 29.9587C133.836 29.9587 133.296 29.7607 132.696 29.3647C132.108 28.9567 131.604 28.4767 131.184 27.9247C130.764 27.3607 130.554 26.8627 130.554 26.4307C130.554 25.7467 130.758 24.5707 131.166 22.9027C131.574 21.2227 131.952 19.9867 132.3 19.1947C132.696 19.0747 133.068 19.0147 133.416 19.0147C133.656 19.0147 133.848 19.0387 133.992 19.0867C133.968 18.6427 134.076 18.2347 134.316 17.8627C134.556 17.4907 134.898 17.2327 135.342 17.0887ZM133.488 27.4927C134.64 27.0727 135.606 26.2687 136.386 25.0807C137.166 23.8807 137.718 22.5667 138.042 21.1387C137.706 20.8987 137.268 20.7007 136.728 20.5447C136.2 20.3887 135.63 20.3047 135.018 20.2927C135.042 20.4127 135.066 20.5927 135.09 20.8327C133.986 22.8967 133.452 25.1167 133.488 27.4927ZM143.249 17.0887C144.701 17.2087 146.045 17.5687 147.281 18.1687C148.517 18.7687 149.495 19.5247 150.215 20.4367C150.935 21.3367 151.295 22.2847 151.295 23.2807C151.295 24.1567 150.911 25.1227 150.143 26.1787C149.375 27.2347 148.439 28.1287 147.335 28.8607C146.243 29.5927 145.247 29.9587 144.347 29.9587C144.047 29.9587 143.663 29.8087 143.195 29.5087C142.739 29.2087 142.337 28.8667 141.989 28.4827C141.641 28.0867 141.467 27.7747 141.467 27.5467C141.467 27.3427 141.587 26.7727 141.827 25.8367C142.067 24.8647 142.265 23.9887 142.421 23.2087C142.481 22.9087 142.613 22.3807 142.817 21.6247C142.841 21.5167 142.901 21.3007 142.997 20.9767C143.093 20.6407 143.165 20.3347 143.213 20.0587L142.475 20.0227C142.283 19.6387 142.187 19.2547 142.187 18.8707C142.187 18.5107 142.277 18.1807 142.457 17.8807C142.637 17.5687 142.901 17.3047 143.249 17.0887ZM144.347 27.6007C145.547 26.9767 146.543 26.2147 147.335 25.3147C148.139 24.4147 148.541 23.5687 148.541 22.7767C148.541 22.3087 148.259 21.8587 147.695 21.4267C147.143 20.9947 146.507 20.7067 145.787 20.5627C145.643 21.2947 145.427 22.3447 145.139 23.7127C144.779 25.4167 144.515 26.7127 144.347 27.6007Z" fill="#C20C18"/>
</svg>
