<svg width="28" height="24" viewBox="0 0 28 24" fill="none" xmlns="http://www.w3.org/2000/svg">
<path d="M1.8125 4.73438H26.1875C26.7053 4.73438 27.125 4.31467 27.125 3.79688V1.45312C27.125 0.935332 26.7053 0.515625 26.1875 0.515625H1.8125C1.29471 0.515625 0.875 0.935332 0.875 1.45312V3.79688C0.875 4.31467 1.29471 4.73438 1.8125 4.73438ZM1.8125 14.1094H26.1875C26.7053 14.1094 27.125 13.6897 27.125 13.1719V10.8281C27.125 10.3103 26.7053 9.89062 26.1875 9.89062H1.8125C1.29471 9.89062 0.875 10.3103 0.875 10.8281V13.1719C0.875 13.6897 1.29471 14.1094 1.8125 14.1094ZM1.8125 23.4844H26.1875C26.7053 23.4844 27.125 23.0647 27.125 22.5469V20.2031C27.125 19.6853 26.7053 19.2656 26.1875 19.2656H1.8125C1.29471 19.2656 0.875 19.6853 0.875 20.2031V22.5469C0.875 23.0647 1.29471 23.4844 1.8125 23.4844Z" fill="#f11"/>
</svg>
