<svg width="24" height="20" viewBox="0 0 24 20" fill="none" xmlns="http://www.w3.org/2000/svg">
<path d="M1.4375 3.70312H22.5625C23.0113 3.70312 23.375 3.33938 23.375 2.89062V0.859375C23.375 0.410621 23.0113 0.046875 22.5625 0.046875H1.4375C0.988746 0.046875 0.625 0.410621 0.625 0.859375V2.89062C0.625 3.33938 0.988746 3.70312 1.4375 3.70312ZM1.4375 11.8281H22.5625C23.0113 11.8281 23.375 11.4644 23.375 11.0156V8.98438C23.375 8.53562 23.0113 8.17188 22.5625 8.17188H1.4375C0.988746 8.17188 0.625 8.53562 0.625 8.98438V11.0156C0.625 11.4644 0.988746 11.8281 1.4375 11.8281ZM1.4375 19.9531H22.5625C23.0113 19.9531 23.375 19.5894 23.375 19.1406V17.1094C23.375 16.6606 23.0113 16.2969 22.5625 16.2969H1.4375C0.988746 16.2969 0.625 16.6606 0.625 17.1094V19.1406C0.625 19.5894 0.988746 19.9531 1.4375 19.9531Z" fill="#DEDCDC"/>
</svg>
