<svg width="30" height="24" viewBox="0 0 30 24" fill="none" xmlns="http://www.w3.org/2000/svg">
<path d="M12.1685 5.82313L4.16634 12.4138V19.5271C4.16634 19.7113 4.2395 19.8879 4.36974 20.0182C4.49997 20.1484 4.67661 20.2216 4.86078 20.2216L9.7245 20.209C9.90808 20.2081 10.0838 20.1345 10.2133 20.0044C10.3428 19.8742 10.4155 19.6981 10.4155 19.5145V15.3605C10.4155 15.1763 10.4886 14.9996 10.6189 14.8694C10.7491 14.7392 10.9257 14.666 11.1099 14.666H13.8877C14.0719 14.666 14.2485 14.7392 14.3787 14.8694C14.509 14.9996 14.5821 15.1763 14.5821 15.3605V19.5115C14.5819 19.6029 14.5996 19.6934 14.6344 19.7779C14.6691 19.8624 14.7203 19.9392 14.7848 20.004C14.8493 20.0687 14.9259 20.12 15.0103 20.155C15.0947 20.1901 15.1852 20.2081 15.2766 20.2081L20.1386 20.2216C20.3227 20.2216 20.4994 20.1484 20.6296 20.0182C20.7598 19.8879 20.833 19.7113 20.833 19.5271V12.4091L12.8326 5.82313C12.7385 5.74732 12.6213 5.70598 12.5005 5.70598C12.3797 5.70598 12.2626 5.74732 12.1685 5.82313ZM24.8087 10.3027L21.1802 7.31185V1.30013C21.1802 1.162 21.1254 1.02952 21.0277 0.931846C20.93 0.83417 20.7975 0.779297 20.6594 0.779297H18.2288C18.0907 0.779297 17.9582 0.83417 17.8606 0.931846C17.7629 1.02952 17.708 1.162 17.708 1.30013V4.45161L13.8222 1.25456C13.4492 0.947691 12.9813 0.77991 12.4984 0.77991C12.0154 0.77991 11.5475 0.947691 11.1746 1.25456L0.188042 10.3027C0.135302 10.3463 0.0916684 10.3999 0.0596336 10.4603C0.0275989 10.5208 0.00779113 10.587 0.00134208 10.6551C-0.00510697 10.7232 0.00192911 10.7919 0.0220483 10.8573C0.0421674 10.9227 0.0749754 10.9835 0.118598 11.0362L1.22537 12.3817C1.26887 12.4346 1.32238 12.4784 1.38283 12.5106C1.44328 12.5428 1.50949 12.5628 1.57766 12.5693C1.64584 12.5759 1.71464 12.569 1.78013 12.5489C1.84561 12.5289 1.9065 12.4961 1.95931 12.4525L12.1685 4.04362C12.2626 3.96781 12.3797 3.92646 12.5005 3.92646C12.6213 3.92646 12.7385 3.96781 12.8326 4.04362L23.0422 12.4525C23.0949 12.4961 23.1557 12.5289 23.2211 12.549C23.2865 12.5691 23.3552 12.5762 23.4234 12.5697C23.4915 12.5633 23.5576 12.5435 23.6181 12.5114C23.6786 12.4794 23.7321 12.4358 23.7757 12.383L24.8825 11.0375C24.9261 10.9845 24.9587 10.9234 24.9786 10.8577C24.9985 10.7921 25.0052 10.7231 24.9983 10.6548C24.9915 10.5865 24.9712 10.5203 24.9387 10.4598C24.9061 10.3994 24.8619 10.346 24.8087 10.3027Z" fill="#f11"/>
</svg>
