<svg width="22" height="30" viewBox="0 0 22 30" fill="none" xmlns="http://www.w3.org/2000/svg">
<path d="M12.9787 9.92955C14.1368 8.88634 14.8712 7.37978 14.8712 5.69791C14.8707 2.55031 12.3193 0 9.17225 0C6.0252 0 3.4738 2.55085 3.4738 5.69791C3.4738 7.3776 4.20503 8.88307 5.36149 9.92628C2.39901 10.156 0.0583255 12.6094 0.037091 15.6307L6.69839e-05 21.8627C-0.00537774 22.6931 0.321306 23.4907 0.906614 24.0798C1.49192 24.6679 2.28794 24.9995 3.11826 24.9995H8.6452H15.0667C16.7818 24.9995 18.1751 23.6149 18.186 21.8998L18.223 15.714C18.2345 14.1753 17.6301 12.6987 16.5444 11.6065C15.5867 10.6406 14.3208 10.0537 12.9787 9.92955Z" fill="#f11"/>
</svg>
