<svg width="25" height="25" viewBox="0 0 25 25" xmlns="http://www.w3.org/2000/svg">
<path d="M23.7986 15.4141L21.7186 14.2129C21.9285 13.0801 21.9285 11.918 21.7186 10.7852L23.7986 9.58403C24.0379 9.44731 24.1453 9.16411 24.0672 8.90044C23.5252 7.16216 22.6024 5.58989 21.3963 4.2813C21.2107 4.0811 20.908 4.03227 20.6736 4.16899L18.5936 5.37016C17.7195 4.61821 16.7137 4.03716 15.6248 3.6563V1.25883C15.6248 0.985397 15.4344 0.74614 15.1658 0.687546C13.3738 0.287155 11.5379 0.306686 9.83379 0.687546C9.56524 0.74614 9.37481 0.985397 9.37481 1.25883V3.66118C8.29083 4.04692 7.28497 4.62798 6.40606 5.37505L4.33086 4.17387C4.09161 4.03716 3.79376 4.0811 3.60821 4.28618C2.40215 5.58989 1.4793 7.16216 0.937311 8.90532C0.854303 9.16899 0.966607 9.45219 1.20587 9.58891L3.28594 10.7901C3.07598 11.9229 3.07598 13.085 3.28594 14.2178L1.20587 15.419C0.966607 15.5557 0.859186 15.8389 0.937311 16.1026C1.4793 17.8409 2.40215 19.4131 3.60821 20.7217C3.79376 20.9219 4.09649 20.9707 4.33086 20.834L6.41094 19.6329C7.28497 20.3848 8.29083 20.9659 9.37969 21.3467V23.7491C9.37969 24.0225 9.57012 24.2618 9.83868 24.3204C11.6307 24.7207 13.4666 24.7012 15.1707 24.3204C15.4393 24.2618 15.6297 24.0225 15.6297 23.7491V21.3467C16.7137 20.961 17.7195 20.3799 18.5984 19.6329L20.6785 20.834C20.9178 20.9707 21.2156 20.9268 21.4012 20.7217C22.6072 19.418 23.5301 17.8457 24.0721 16.1026C24.1453 15.834 24.0379 15.5508 23.7986 15.4141ZM12.4998 16.4053C10.3465 16.4053 8.59356 14.6524 8.59356 12.4991C8.59356 10.3457 10.3465 8.59282 12.4998 8.59282C14.6531 8.59282 16.4061 10.3457 16.4061 12.4991C16.4061 14.6524 14.6531 16.4053 12.4998 16.4053Z" fill="#c3c1c1"/>
</svg>
