<svg width="241" height="232" viewBox="0 0 241 232" fill="none" xmlns="http://www.w3.org/2000/svg">
<path d="M119.057 47.1156C131.79 47.1156 142.113 36.5684 142.113 23.5578C142.113 10.5472 131.79 0 119.057 0C106.323 0 96 10.5472 96 23.5578C96 36.5684 106.323 47.1156 119.057 47.1156Z" fill="#E4E4E4"/>
<path d="M142.073 79.6892H120.752V62.0125C120.774 60.9179 121.25 59.8764 122.076 59.1161C122.902 58.3558 124.011 57.9388 125.159 57.9566H132.247C137.665 57.9566 142.073 62.0129 142.073 66.9987V79.6892Z" fill="#2F2E41"/>
<path d="M149.967 227.608L145.919 227.608L143.994 212.725L149.967 212.725L149.967 227.608Z" fill="#FFB6B6"/>
<path d="M150.999 231.348L137.948 231.348V231.19C137.948 229.906 138.483 228.674 139.436 227.766C140.388 226.858 141.681 226.348 143.028 226.348H143.028L150.999 226.348L150.999 231.348Z" fill="#2F2E41"/>
<path d="M112.659 227.608L108.611 227.608L106.686 212.725L112.66 212.725L112.659 227.608Z" fill="#FFB6B6"/>
<path d="M113.691 231.348L100.64 231.348V231.19C100.64 229.906 101.175 228.674 102.128 227.766C103.081 226.858 104.373 226.348 105.72 226.348H105.72L113.692 226.348L113.691 231.348Z" fill="#2F2E41"/>
<path d="M117.546 108.04L114.905 124.092L139.997 124.406L136.695 108.984L117.546 108.04Z" fill="#FFB6B6"/>
<path d="M115.633 120.172L107.642 140.458L106.651 224.524H113.419L129.597 156.981L144.454 222.761H151.057L146.435 148.798C146.435 148.798 147.798 133.953 140.822 125.193L139.124 120.517L115.633 120.172Z" fill="#2F2E41"/>
<path d="M149.913 135.986C149.214 135.804 148.566 135.479 148.013 135.033C147.461 134.587 147.018 134.03 146.715 133.403C146.413 132.776 146.258 132.093 146.262 131.403C146.266 130.713 146.429 130.032 146.739 129.408L136.065 96.2322L143.916 94.7485L153.679 127.268C154.744 127.834 155.554 128.753 155.955 129.85C156.357 130.947 156.322 132.147 155.858 133.222C155.394 134.296 154.532 135.171 153.437 135.681C152.341 136.19 151.087 136.299 149.913 135.986H149.913Z" fill="#FFB6B6"/>
<path d="M135.787 116.905L118.49 116.586C117.996 116.576 117.518 116.412 117.131 116.119C116.744 115.826 116.469 115.419 116.347 114.963C115.42 111.463 113.379 102.342 114.462 93.258C114.675 91.4982 115.257 89.7971 116.172 88.2553C117.087 86.7136 118.318 85.3625 119.79 84.282C121.263 83.2015 122.948 82.4136 124.746 81.9648C126.544 81.5161 128.418 81.4156 130.257 81.6693C132.197 81.9341 134.056 82.5869 135.713 83.585C137.37 84.5831 138.787 85.9038 139.871 87.4606C140.954 89.0173 141.681 90.7749 142.002 92.618C142.323 94.4612 142.231 96.3482 141.734 98.1553C139.556 106.037 138.327 111.676 138.078 114.915C138.042 115.384 137.845 115.828 137.519 116.18C137.192 116.532 136.754 116.772 136.271 116.864C136.127 116.891 135.981 116.905 135.835 116.905C135.819 116.905 135.803 116.905 135.787 116.905Z" fill="#E4E4E4"/>
<path d="M83.2471 87.7641C83.351 87.9862 83.4364 88.2158 83.5024 88.4508L105.153 95.464L109.336 91.9801L115.677 97.3115L108.9 104.165C108.352 104.719 107.631 105.088 106.845 105.218C106.058 105.348 105.249 105.231 104.538 104.885L81.3706 93.6039C80.5328 94.0938 79.5584 94.3289 78.577 94.278C77.5956 94.2271 76.6537 93.8926 75.8766 93.3189C75.0995 92.7453 74.5241 91.9597 74.2268 91.0667C73.9294 90.1736 73.9244 89.2155 74.2123 88.3196C74.5001 87.4238 75.0673 86.6327 75.8383 86.0516C76.6093 85.4706 77.5476 85.127 78.5284 85.0667C79.5092 85.0064 80.486 85.2322 81.329 85.714C82.1719 86.1958 82.8409 86.9109 83.2471 87.7641V87.7641Z" fill="#FFB6B6"/>
<path d="M105.198 94.3456C105.199 94.0614 105.265 93.7808 105.391 93.5231C105.517 93.2654 105.699 93.0366 105.926 92.8524L113.854 86.4151C114.857 85.3192 116.275 84.6473 117.797 84.5468C119.319 84.4463 120.821 84.9254 121.973 85.879C123.125 86.8326 123.834 88.1829 123.943 89.6337C124.052 91.0844 123.553 92.5173 122.556 93.6179L116.911 101.998C116.749 102.237 116.536 102.44 116.285 102.594C116.034 102.747 115.751 102.847 115.456 102.887C115.161 102.927 114.86 102.906 114.574 102.825C114.289 102.744 114.024 102.606 113.8 102.419L105.907 95.8474C105.683 95.6605 105.503 95.4295 105.38 95.1704C105.258 94.9112 105.196 94.6299 105.198 94.3456Z" fill="#E4E4E4"/>
<path d="M134.646 104.875C134.382 104.743 134.151 104.558 133.969 104.332C133.787 104.107 133.658 103.847 133.591 103.571L131.247 93.8981C130.689 92.5446 130.716 91.0354 131.324 89.7012C131.931 88.3671 133.069 87.3171 134.487 86.7813C135.905 86.2456 137.489 86.2679 138.89 86.8433C140.291 87.4188 141.395 88.5004 141.961 89.8511L147.165 98.487C147.313 98.7334 147.405 99.0075 147.432 99.2905C147.459 99.5736 147.422 99.8589 147.324 100.127C147.225 100.395 147.067 100.64 146.86 100.845C146.653 101.049 146.402 101.209 146.124 101.313L136.371 104.966C136.094 105.07 135.796 105.116 135.498 105.1C135.2 105.084 134.91 105.007 134.646 104.875Z" fill="#E4E4E4"/>
<path d="M143.037 59.9223C143.837 58.1351 142.46 55.861 139.96 54.8431C137.461 53.8252 134.785 54.4488 133.984 56.2361C133.183 58.0233 134.56 60.2974 137.06 61.3153C139.56 62.3332 142.236 61.7096 143.037 59.9223Z" fill="#2F2E41"/>
<path d="M136.223 72.969C138.897 68.3055 137.099 62.4584 132.207 59.9092C127.315 57.3599 121.182 59.0738 118.507 63.7372C115.833 68.4007 117.631 74.2477 122.523 76.797C127.415 79.3463 133.549 77.6324 136.223 72.969Z" fill="#FFB6B6"/>
<path d="M132.903 57.3313H121.356C120.51 57.3209 119.69 57.6159 119.062 58.1572C118.434 58.6986 118.044 59.4462 117.971 60.2502C117.941 60.6774 118.003 61.1059 118.154 61.5092C118.305 61.9125 118.541 62.2819 118.848 62.5946C119.155 62.9072 119.526 63.1565 119.938 63.3269C120.35 63.4974 120.795 63.5853 121.244 63.5853C122.114 63.5853 122.948 63.9148 123.563 64.5012C124.178 65.0876 124.524 65.883 124.524 66.7123V79.533H142.565V66.5424C142.565 65.3328 142.315 64.135 141.83 63.0175C141.344 61.8999 140.632 60.8845 139.735 60.0292C138.838 59.1739 137.773 58.4954 136.6 58.0325C135.428 57.5696 134.172 57.3313 132.903 57.3313Z" fill="#2F2E41"/>
<path d="M218 47C230.703 47 241 36.4787 241 23.5C241 10.5213 230.703 0 218 0C205.297 0 195 10.5213 195 23.5C195 36.4787 205.297 47 218 47Z" fill="#E4E4E4"/>
<path d="M218 43C228.493 43 237 34.2696 237 23.5C237 12.7304 228.493 4 218 4C207.507 4 199 12.7304 199 23.5C199 34.2696 207.507 43 218 43Z" fill="white"/>
<path d="M119 47C131.703 47 142 36.4787 142 23.5C142 10.5213 131.703 0 119 0C106.297 0 96 10.5213 96 23.5C96 36.4787 106.297 47 119 47Z" fill="#E4E4E4"/>
<path d="M119 43C129.493 43 138 34.2696 138 23.5C138 12.7304 129.493 4 119 4C108.507 4 100 12.7304 100 23.5C100 34.2696 108.507 43 119 43Z" fill="white"/>
<path d="M23 47C35.7025 47 46 36.4787 46 23.5C46 10.5213 35.7025 0 23 0C10.2975 0 0 10.5213 0 23.5C0 36.4787 10.2975 47 23 47Z" fill="#E4E4E4"/>
<path d="M23 43C33.4934 43 42 34.2696 42 23.5C42 12.7304 33.4934 4 23 4C12.5066 4 4 12.7304 4 23.5C4 34.2696 12.5066 43 23 43Z" fill="white"/>
</svg>
