<svg width="245" height="232" viewBox="0 0 245 232" fill="none" xmlns="http://www.w3.org/2000/svg">
<path d="M52 65C63.0457 65 72 56.0457 72 45C72 33.9543 63.0457 25 52 25C40.9543 25 32 33.9543 32 45C32 56.0457 40.9543 65 52 65Z" fill="white"/>
<path d="M92.1603 79.6892H113.482V62.0125C113.46 60.9179 112.983 59.8764 112.157 59.1161C111.331 58.3558 110.222 57.9388 109.074 57.9566H101.987C96.5684 57.9566 92.1603 62.0129 92.1603 66.9987V79.6892Z" fill="#2F2E41"/>
<path d="M84.2666 227.608L88.3141 227.608L90.2399 212.725L84.2659 212.725L84.2666 227.608Z" fill="#FFB6B6"/>
<path d="M83.2343 231.348L96.2856 231.348V231.19C96.2855 229.906 95.7503 228.674 94.7976 227.766C93.845 226.858 92.5529 226.348 91.2057 226.348H91.2053L83.234 226.348L83.2343 231.348Z" fill="#2F2E41"/>
<path d="M121.574 227.608L125.622 227.608L127.548 212.725L121.574 212.725L121.574 227.608Z" fill="#FFB6B6"/>
<path d="M120.542 231.348L133.593 231.348V231.19C133.593 229.906 133.058 228.674 132.105 227.766C131.153 226.858 129.861 226.348 128.513 226.348H128.513L120.542 226.348L120.542 231.348Z" fill="#2F2E41"/>
<path d="M116.687 108.04L119.328 124.092L94.2365 124.406L97.5381 108.984L116.687 108.04Z" fill="#FFB6B6"/>
<path d="M118.6 120.172L126.592 140.458L127.582 224.524H120.814L104.636 156.981L89.7793 222.761H83.1761L87.7983 148.798C87.7983 148.798 86.4353 133.953 93.411 125.193L95.1089 120.517L118.6 120.172Z" fill="#2F2E41"/>
<path d="M84.3205 135.986C85.0191 135.804 85.6675 135.479 86.22 135.033C86.7725 134.587 87.2156 134.03 87.5182 133.403C87.8207 132.776 87.9754 132.093 87.9712 131.403C87.967 130.713 87.8041 130.032 87.494 129.408L98.1685 96.2322L90.317 94.7485L80.5541 127.268C79.4894 127.834 78.6795 128.753 78.2779 129.85C77.8763 130.947 77.9109 132.147 78.3752 133.222C78.8394 134.296 79.7011 135.171 80.7968 135.681C81.8926 136.19 83.1463 136.299 84.3205 135.986H84.3205Z" fill="#FFB6B6"/>
<path d="M98.4469 116.905L115.743 116.586C116.238 116.576 116.715 116.412 117.102 116.119C117.489 115.826 117.765 115.419 117.887 114.963C118.814 111.463 120.854 102.342 119.772 93.258C119.558 91.4982 118.977 89.7971 118.061 88.2553C117.146 86.7136 115.916 85.3625 114.443 84.282C112.97 83.2015 111.285 82.4136 109.488 81.9648C107.69 81.5161 105.816 81.4156 103.977 81.6693C102.037 81.9341 100.177 82.5869 98.5202 83.585C96.8634 84.5831 95.4466 85.9038 94.3629 87.4606C93.2791 89.0173 92.5529 90.7749 92.2319 92.618C91.9108 94.4612 92.0022 96.3482 92.4999 98.1553C94.6772 106.037 95.907 111.676 96.1552 114.915C96.1919 115.384 96.3885 115.828 96.7148 116.18C97.0412 116.532 97.4794 116.772 97.9625 116.864C98.1062 116.891 98.2523 116.905 98.3988 116.905C98.4149 116.905 98.4309 116.905 98.4469 116.905Z" fill="#E4E4E4"/>
<path d="M150.986 87.7641C150.882 87.9862 150.797 88.2158 150.731 88.4508L129.081 95.464L124.897 91.9801L118.556 97.3115L125.334 104.165C125.881 104.719 126.602 105.088 127.389 105.218C128.175 105.348 128.985 105.231 129.696 104.885L152.863 93.6039C153.701 94.0938 154.675 94.3289 155.656 94.278C156.638 94.2271 157.58 93.8926 158.357 93.3189C159.134 92.7453 159.709 91.9597 160.007 91.0667C160.304 90.1736 160.309 89.2155 160.021 88.3196C159.733 87.4238 159.166 86.6327 158.395 86.0516C157.624 85.4706 156.686 85.127 155.705 85.0667C154.724 85.0064 153.747 85.2322 152.904 85.714C152.062 86.1958 151.393 86.9109 150.986 87.7641V87.7641Z" fill="#FFB6B6"/>
<path d="M129.036 94.3456C129.034 94.0614 128.968 93.7808 128.842 93.5231C128.717 93.2654 128.534 93.0366 128.307 92.8524L120.38 86.4151C119.376 85.3192 117.958 84.6473 116.436 84.5468C114.914 84.4463 113.412 84.9254 112.26 85.879C111.108 86.8326 110.4 88.1829 110.29 89.6337C110.181 91.0844 110.68 92.5173 111.678 93.6179L117.323 101.998C117.484 102.237 117.697 102.44 117.948 102.594C118.199 102.747 118.482 102.847 118.777 102.887C119.072 102.927 119.373 102.906 119.659 102.825C119.945 102.744 120.209 102.606 120.434 102.419L128.326 95.8474C128.551 95.6605 128.73 95.4295 128.853 95.1704C128.975 94.9112 129.038 94.6299 129.036 94.3456Z" fill="#E4E4E4"/>
<path d="M99.5876 104.875C99.8515 104.743 100.082 104.558 100.264 104.332C100.446 104.107 100.575 103.847 100.642 103.571L102.986 93.8981C103.544 92.5446 103.517 91.0354 102.91 89.7012C102.302 88.3671 101.165 87.3171 99.7463 86.7813C98.328 86.2456 96.7447 86.2679 95.3436 86.8433C93.9425 87.4188 92.838 88.5004 92.2723 89.8511L87.0684 98.487C86.9199 98.7334 86.8289 99.0075 86.8015 99.2905C86.7742 99.5736 86.8111 99.8589 86.9099 100.127C87.0086 100.395 87.1668 100.64 87.3737 100.845C87.5806 101.049 87.8314 101.209 88.1089 101.313L97.8623 104.966C98.1398 105.07 98.4376 105.116 98.7354 105.1C99.0331 105.084 99.3238 105.007 99.5876 104.875Z" fill="#E4E4E4"/>
<path d="M91.1969 59.9223C90.3961 58.1351 91.7733 55.861 94.2731 54.8431C96.7728 53.8252 99.4485 54.4488 100.249 56.2361C101.05 58.0233 99.673 60.2974 97.1732 61.3153C94.6735 62.3332 91.9978 61.7096 91.1969 59.9223Z" fill="#2F2E41"/>
<path d="M98.0107 72.969C95.3365 68.3055 97.1343 62.4584 102.026 59.9092C106.918 57.3599 113.052 59.0738 115.726 63.7372C118.4 68.4007 116.602 74.2477 111.71 76.797C106.818 79.3463 100.685 77.6324 98.0107 72.969Z" fill="#FFB6B6"/>
<path d="M101.331 57.3313H112.877C113.724 57.3209 114.543 57.6159 115.171 58.1572C115.799 58.6986 116.189 59.4462 116.263 60.2502C116.293 60.6774 116.23 61.1059 116.079 61.5092C115.928 61.9125 115.692 62.2819 115.385 62.5946C115.078 62.9072 114.707 63.1565 114.295 63.3269C113.883 63.4974 113.439 63.5853 112.99 63.5853C112.12 63.5853 111.285 63.9148 110.67 64.5012C110.055 65.0876 109.709 65.883 109.709 66.7123V79.533H91.6682V66.5424C91.6682 65.3328 91.9182 64.135 92.4038 63.0175C92.8894 61.8999 93.6011 60.8845 94.4983 60.0292C95.3956 59.1739 96.4607 58.4954 97.6331 58.0325C98.8054 57.5696 100.062 57.3313 101.331 57.3313Z" fill="#2F2E41"/>
<path d="M23.0566 47.1156C35.7904 47.1156 46.1132 36.5684 46.1132 23.5578C46.1132 10.5472 35.7904 0 23.0566 0C10.3228 0 0 10.5472 0 23.5578C0 36.5684 10.3228 47.1156 23.0566 47.1156Z" fill="#E4E4E4"/>
<path d="M23.0566 44.1082C34.1295 44.1082 43.1058 35.1318 43.1058 24.059C43.1058 12.9861 34.1295 4.00977 23.0566 4.00977C11.9837 4.00977 3.00737 12.9861 3.00737 24.059C3.00737 35.1318 11.9837 44.1082 23.0566 44.1082Z" fill="#63FF85"/>
<path d="M21.2778 32.0784C21.2423 32.0784 21.2066 32.0775 21.171 32.0757C20.8563 32.0601 20.5486 31.9747 20.269 31.8253C19.9894 31.6759 19.7446 31.4661 19.5513 31.2102L16.499 27.1741C16.1436 26.703 15.9844 26.1062 16.0563 25.5146C16.1281 24.9229 16.4253 24.3848 16.8825 24.0181L16.9923 23.9302C17.4503 23.5647 18.0306 23.401 18.6059 23.4749C19.1812 23.5489 19.7045 23.8544 20.061 24.3246C20.233 24.5521 20.4508 24.7387 20.6994 24.8716C20.9481 25.0045 21.2217 25.0805 21.5016 25.0946C21.7815 25.1086 22.061 25.0603 22.321 24.9529C22.5811 24.8455 22.8155 24.6816 23.0082 24.4724L29.2058 17.7438C29.4033 17.5294 29.64 17.3571 29.9022 17.2367C30.1645 17.1163 30.4472 17.0503 30.7343 17.0423C31.0213 17.0344 31.3071 17.0846 31.5753 17.1902C31.8435 17.2959 32.0888 17.4548 32.2973 17.6579L32.3985 17.7565C32.8194 18.1668 33.0647 18.7322 33.0804 19.3284C33.096 19.9246 32.8808 20.5028 32.4819 20.9358L22.8648 31.3761C22.6606 31.598 22.4145 31.7747 22.1417 31.8955C21.8688 32.0162 21.5749 32.0785 21.2778 32.0784Z" fill="white"/>
<path d="M123.057 47.1156C135.79 47.1156 146.113 36.5684 146.113 23.5578C146.113 10.5472 135.79 0 123.057 0C110.323 0 100 10.5472 100 23.5578C100 36.5684 110.323 47.1156 123.057 47.1156Z" fill="#E4E4E4"/>
<path d="M123.057 44.1082C134.129 44.1082 143.106 35.1318 143.106 24.059C143.106 12.9861 134.129 4.00977 123.057 4.00977C111.984 4.00977 103.007 12.9861 103.007 24.059C103.007 35.1318 111.984 44.1082 123.057 44.1082Z" fill="#63FF85"/>
<path d="M121.278 32.0784C121.242 32.0784 121.207 32.0775 121.171 32.0757C120.856 32.0601 120.549 31.9747 120.269 31.8253C119.989 31.6759 119.745 31.4661 119.551 31.2102L116.499 27.1741C116.144 26.703 115.984 26.1062 116.056 25.5146C116.128 24.9229 116.425 24.3848 116.882 24.0181L116.992 23.9302C117.45 23.5647 118.031 23.401 118.606 23.4749C119.181 23.5489 119.704 23.8544 120.061 24.3246C120.233 24.5521 120.451 24.7387 120.699 24.8716C120.948 25.0045 121.222 25.0805 121.502 25.0946C121.781 25.1086 122.061 25.0603 122.321 24.9529C122.581 24.8455 122.815 24.6816 123.008 24.4724L129.206 17.7438C129.403 17.5294 129.64 17.3571 129.902 17.2367C130.164 17.1163 130.447 17.0503 130.734 17.0423C131.021 17.0344 131.307 17.0846 131.575 17.1902C131.843 17.2959 132.089 17.4548 132.297 17.6579L132.398 17.7565C132.819 18.1668 133.065 18.7322 133.08 19.3284C133.096 19.9246 132.881 20.5028 132.482 20.9358L122.865 31.3761C122.661 31.598 122.415 31.7747 122.142 31.8955C121.869 32.0162 121.575 32.0785 121.278 32.0784Z" fill="white"/>
<path d="M222 47C234.703 47 245 36.4787 245 23.5C245 10.5213 234.703 0 222 0C209.297 0 199 10.5213 199 23.5C199 36.4787 209.297 47 222 47Z" fill="#E4E4E4"/>
<path d="M222 43C232.493 43 241 34.2696 241 23.5C241 12.7304 232.493 4 222 4C211.507 4 203 12.7304 203 23.5C203 34.2696 211.507 43 222 43Z" fill="white"/>
</svg>
