<svg width="212" height="232" viewBox="0 0 212 232" fill="none" xmlns="http://www.w3.org/2000/svg">
<path d="M211.067 232H170.42L170.245 231.685C169.726 230.749 169.224 229.757 168.755 228.737C164.568 219.833 162.798 209.65 161.237 200.665L160.061 193.892C159.919 193.072 160.026 192.228 160.369 191.469C160.712 190.71 161.276 190.069 161.988 189.63C162.699 189.191 163.527 188.972 164.364 189.003C165.201 189.033 166.01 189.311 166.688 189.801C172.865 194.266 179.044 198.727 185.226 203.184C187.567 204.876 190.24 206.834 192.8 208.95C193.047 207.758 193.306 206.563 193.564 205.384C193.742 204.57 194.161 203.828 194.766 203.252C195.372 202.676 196.136 202.292 196.963 202.15C197.789 202.008 198.639 202.114 199.404 202.455C200.169 202.796 200.814 203.356 201.257 204.063L206.012 211.653C209.481 217.196 212.542 222.658 211.919 228.548C211.922 228.62 211.916 228.692 211.903 228.762C211.778 229.73 211.546 230.681 211.212 231.598L211.067 232Z" fill="#F0F0F0"/>
<path d="M193.507 73.9655L185.606 45.5039C185.267 44.2991 184.456 43.272 183.346 42.6444C182.237 42.0168 180.918 41.8389 179.675 42.1492C179.032 42.3097 178.429 42.596 177.903 42.9906C177.378 43.3853 176.94 43.88 176.617 44.4446C176.294 45.0092 176.093 45.6319 176.025 46.2748C175.958 46.9176 176.026 47.5671 176.224 48.1836L185.363 77.5033L190.144 95.5469C189.448 96.0644 188.932 96.7779 188.667 97.5907C188.401 98.4034 188.4 99.2758 188.662 100.089C188.924 100.903 189.437 101.619 190.131 102.139C190.826 102.659 191.668 102.958 192.543 102.996C193.418 103.034 194.284 102.809 195.024 102.351C195.763 101.893 196.339 101.225 196.675 100.437C197.01 99.6498 197.088 98.7806 196.899 97.9482C196.709 97.1157 196.261 96.3602 195.614 95.7845L193.507 73.9655Z" fill="#FFD3AA"/>
<path d="M127.141 68.1892L151.107 50.4206C152.12 49.665 152.784 48.5558 152.956 47.3327C153.128 46.1095 152.793 44.8703 152.025 43.8826C151.627 43.3716 151.126 42.9439 150.551 42.6257C149.977 42.3074 149.341 42.1053 148.683 42.0315C148.024 41.9577 147.357 42.0139 146.722 42.1966C146.087 42.3793 145.497 42.6847 144.988 43.0942L120.681 62.2866L105.401 73.3488C104.644 72.9253 103.771 72.7363 102.9 72.8075C102.028 72.8787 101.2 73.2066 100.529 73.7468C99.8578 74.2869 99.3754 75.013 99.1473 75.8265C98.9193 76.64 98.9567 77.5014 99.2545 78.2937C99.5524 79.086 100.096 79.7707 100.812 80.2549C101.528 80.7391 102.381 80.9992 103.256 81C104.13 81.0008 104.984 80.7421 105.701 80.2592C106.418 79.7762 106.963 79.0924 107.262 78.3007L127.141 68.1892Z" fill="#FFD3AA"/>
<path d="M146.051 72.2632L145 95L178 88.0526C175.191 78.9165 173.281 77.3582 175.392 71L146.051 72.2632Z" fill="#FFD3AA"/>
<path d="M166.917 31H156.172L151.557 38.7721L149.358 38.6526C148.283 38.5942 147.207 38.7522 146.195 39.1171C145.184 39.4819 144.259 40.0459 143.477 40.7746C142.694 41.5032 142.071 42.3813 141.645 43.355C141.22 44.3287 141 45.3777 141 46.4378L143.709 50.5708C143.709 50.5708 138.864 58.8819 145.843 62.9706C145.843 62.9706 144.599 70.6743 145.843 70.5915C147.088 70.5087 149.956 68.9408 147.088 70.5087C144.221 72.0765 144.435 72.2871 144.806 72.6522L145.177 73.0173L175.326 78C175.326 78 176.208 72.2473 176.303 71.2212C176.398 70.1951 175.761 72.7037 176.398 70.1951C177.035 67.6865 177.991 68.6272 177.035 67.6865C176.08 66.7458 183.228 55.0914 180.291 50.5708L185 46.0501C185 41.7137 177.924 38.1984 173.518 38.1984H172.954L166.917 31Z" fill="#E6E6E6"/>
<path d="M141 224H136.256L134 205L141 205L141 224Z" fill="#FFD3AA"/>
<path d="M127.014 229.297C127.017 229.748 127.236 230.179 127.623 230.498C128.011 230.817 128.537 230.997 129.086 231H138.312L138.598 230.514L139.903 228.305L140.408 230.514L140.52 231H144L143.95 230.511L143.022 221.381L141.808 221.32L136.564 221.065L135.275 221V223.726C134.297 224.579 126.625 227.805 127.014 229.297Z" fill="#2F2E41"/>
<path d="M206 212.427L202.209 215L191 200.797L196.595 197L206 212.427Z" fill="#FFD3AA"/>
<path d="M198.221 224.197C198.488 224.586 198.907 224.86 199.387 224.959C199.867 225.058 200.368 224.974 200.783 224.726L207.722 220.501L207.65 219.949L207.329 217.435L209.012 219.12L209.383 219.49L212 217.897L211.674 217.495L205.592 210L204.643 210.503L200.548 212.683L199.541 213.217L201.149 215.582C200.916 216.769 197.048 223.081 198.221 224.197Z" fill="#2F2E41"/>
<path d="M177.534 85C177.534 85 157.013 96.0393 146.159 88.5076C146.159 88.5076 143.785 100.203 142.833 101.17C141.882 102.138 140.366 102.559 141.441 103.639C142.516 104.718 143.114 106.176 141.071 108.027C139.027 109.879 136.989 109.291 138.96 111.198C140.93 113.104 133.001 159.873 133.001 159.873C133.001 159.873 134.27 203.366 133.001 204.681C131.733 205.997 130.037 206.291 131.678 207.918C133.318 209.545 133.318 208.283 133.318 210.527V212.77L134.069 215H144.367C144.367 215 146.852 212.064 144.367 209.514C141.882 206.964 145.123 206.267 145.881 203.874C146.639 201.481 147.908 204.061 146.639 201.481C145.37 198.901 144.761 199.392 144.748 197.695C144.736 195.998 163.448 129.554 163.448 129.554L165.715 166.33L192.976 206.605L201 200.485C201 200.485 195.158 192.121 196.524 190.971C197.89 189.822 192.497 188.379 194.198 187.082C195.898 185.785 191.805 184.478 193.348 182.759C194.891 181.04 191.222 176.706 189.096 176.706C186.971 176.706 183.988 169.482 183.988 169.482L188.441 112.416L177.534 85Z" fill="#2F2E41"/>
<path d="M155.984 6.24484C155.84 6.43365 154.695 6.33198 153.318 6.13079C150.595 5.73302 150.224 6.2057 148.189 8.05816C145.241 10.7416 146.917 27.1086 145.468 30.6549L145 31C145.928 30.8226 146.84 30.5673 147.726 30.2368C148.226 28.6575 148.728 27.0731 149.233 25.4951C149.709 26.7228 150.009 28.0123 150.123 29.3245C150.824 29.0481 151.52 28.372 154.449 27.4653C155.923 26.4644 166.592 25.4579 167.963 25.0175C171.444 13.1676 165.835 8.37543 155.984 6.24484Z" fill="#2F2E41"/>
<path d="M159.5 25C165.299 25 170 20.299 170 14.5C170 8.70101 165.299 4 159.5 4C153.701 4 149 8.70101 149 14.5C149 20.299 153.701 25 159.5 25Z" fill="#FFD3AA"/>
<path d="M165.531 5.52295C164.92 5.4325 164.331 5.22563 163.797 4.91347C163.532 4.7532 163.317 4.52154 163.178 4.24494C163.038 3.96834 162.979 3.65794 163.007 3.34921C163.14 2.5763 164.012 2.11481 164.794 2.16182C165.572 2.2742 166.311 2.57396 166.948 3.03539C166.878 2.28845 166.559 1.58676 166.043 1.043C165.528 0.499236 164.845 0.144967 164.104 0.0370932C165.131 -0.0183937 166.2 -0.0673357 167.15 0.328753C168.1 0.724842 168.892 1.7056 168.72 2.72259C170.318 2.51633 171.893 3.63185 172.553 5.10458C173.212 6.5773 173.082 8.30679 172.555 9.83224C172.503 10.0658 172.401 10.2855 172.257 10.4764C172.113 10.6672 171.93 10.8248 171.72 10.9385C171.182 11.143 170.603 10.8001 170.138 10.4621C167.704 8.69628 165.489 6.64625 163.54 4.35531" fill="#2F2E41"/>
<path d="M169.844 26.1684C169.391 26.3804 169.627 27.1692 169.275 27.5225C169.122 27.672 168.938 27.786 168.736 27.8561C168.683 27.1977 168.528 26.5513 168.278 25.9395C168.232 25.8283 168.157 25.704 168.038 25.7138C167.9 25.7301 167.864 25.91 167.86 26.0441C167.833 26.7093 167.684 27.3641 167.423 27.9771C167.42 27.9837 167.416 27.9935 167.413 28C167.311 27.9967 167.206 27.9935 167.107 27.9902C166.344 27.9608 164.653 26.0115 164.278 26.6721C165.6 24.3401 167.212 20.8339 167.459 18.1684C167.545 17.6103 167.503 17.0403 167.337 16.5003C167.251 16.2317 167.089 15.9934 166.87 15.8136C166.651 15.6339 166.385 15.5203 166.104 15.4864C165.965 15.4801 165.826 15.5044 165.698 15.5576C165.569 15.6108 165.454 15.6915 165.361 15.794C165.268 15.8965 165.198 16.0182 165.158 16.1505C165.117 16.2828 165.107 16.4224 165.127 16.5592L164.936 16.533C163.166 15.1005 164.693 12.6115 162.633 11.627C161.936 11.2934 157.666 12.4087 156.912 12.2125C156.896 11.4235 156.735 10.6441 156.435 9.91319C156.389 9.80198 156.314 9.67769 156.195 9.68751C156.057 9.70386 156.021 9.88374 156.018 10.0178C155.99 10.6831 155.841 11.3379 155.58 11.9508C154.536 11.8036 153.474 11.8592 152.451 12.1143C151.55 12.3498 150.695 12.7554 149.79 12.9713C149.343 13.1075 148.872 13.1517 148.407 13.1011C147.943 13.0504 147.493 12.9061 147.086 12.6769C145.938 11.9116 145.737 10.2174 146.31 8.96794C146.724 8.16623 147.284 7.44767 147.961 6.84855C148.477 6.35139 149.014 5.87387 149.55 5.39637C150.03 4.96791 150.511 4.53945 150.991 4.11098C151.595 3.54521 152.24 3.02279 152.919 2.54761C154.003 1.84119 155.22 1.36248 156.497 1.14088C157.774 0.919276 159.083 0.959459 160.343 1.25896C161.857 1.61872 163.88 1.11179 165.265 1.81497C165.989 2.18455 167.591 3.60077 168.226 4.10445C169.851 5.38984 168.751 4.34246 170.528 5.08564C174.767 6.85772 172.893 24.7416 169.844 26.1684Z" fill="#2F2E41"/>
<path d="M65 186C100.899 186 130 156.899 130 121C130 85.1015 100.899 56 65 56C29.1015 56 0 85.1015 0 121C0 156.899 29.1015 186 65 186Z" fill="white"/>
<path d="M65.5 186C29.3832 186 0 156.841 0 121C0 85.1589 29.3832 56 65.5 56C101.617 56 131 85.1589 131 121C131 156.841 101.617 186 65.5 186ZM65.5 57.2848C30.0972 57.2848 1.2947 85.8674 1.2947 121C1.2947 156.133 30.0972 184.715 65.5 184.715C100.903 184.715 129.705 156.133 129.705 121C129.705 85.8674 100.903 57.2848 65.5 57.2848Z" fill="#63FF85"/>
<path d="M56.7201 154C55.6086 154 54.5123 153.745 53.5181 153.255C52.524 152.765 51.6593 152.054 50.9926 151.178L33.4319 128.113C32.8677 127.372 32.4573 126.528 32.224 125.631C31.9906 124.734 31.939 123.8 32.072 122.883C32.205 121.966 32.52 121.084 32.9991 120.287C33.4782 119.49 34.1119 118.794 34.8642 118.238C35.6164 117.682 36.4724 117.278 37.3832 117.048C38.2941 116.818 39.242 116.768 40.1728 116.899C41.1036 117.03 41.9991 117.34 42.8081 117.812C43.6172 118.284 44.3239 118.908 44.8881 119.649L56.3769 134.738L85.8845 91.1373C86.9384 89.5821 88.5761 88.5027 90.4376 88.1366C92.2991 87.7704 94.2321 88.1474 95.8115 89.1847C97.391 90.2219 98.4876 91.8346 98.8605 93.6681C99.2333 95.5016 98.8518 97.4059 97.7999 98.9624L62.6784 150.859C62.043 151.797 61.1885 152.572 60.1865 153.118C59.1845 153.665 58.0641 153.966 56.9194 153.998C56.853 153.999 56.7865 154 56.7201 154Z" fill="#63FF85"/>
</svg>
