<svg width="245" height="232" viewBox="0 0 245 232" fill="none" xmlns="http://www.w3.org/2000/svg">
<path d="M52 65C63.0457 65 72 56.0457 72 45C72 33.9543 63.0457 25 52 25C40.9543 25 32 33.9543 32 45C32 56.0457 40.9543 65 52 65Z" fill="white"/>
<path d="M92.1602 79.6892H113.482V62.0125C113.46 60.9179 112.983 59.8764 112.157 59.1161C111.331 58.3558 110.222 57.9388 109.074 57.9566H101.987C96.5683 57.9566 92.1602 62.0129 92.1602 66.9987V79.6892Z" fill="#2F2E41"/>
<path d="M84.2665 227.608L88.314 227.608L90.2398 212.725L84.2659 212.725L84.2665 227.608Z" fill="#FFB6B6"/>
<path d="M83.2342 231.348L96.2856 231.348V231.19C96.2855 229.906 95.7502 228.674 94.7976 227.766C93.8449 226.858 92.5529 226.348 91.2056 226.348H91.2053L83.234 226.348L83.2342 231.348Z" fill="#2F2E41"/>
<path d="M121.574 227.608L125.622 227.608L127.547 212.725L121.574 212.725L121.574 227.608Z" fill="#FFB6B6"/>
<path d="M120.542 231.348L133.593 231.348V231.19C133.593 229.906 133.058 228.674 132.105 227.766C131.153 226.858 129.861 226.348 128.513 226.348H128.513L120.542 226.348L120.542 231.348Z" fill="#2F2E41"/>
<path d="M116.687 108.04L119.328 124.092L94.2365 124.406L97.538 108.984L116.687 108.04Z" fill="#FFB6B6"/>
<path d="M118.6 120.172L126.592 140.458L127.582 224.524H120.814L104.636 156.981L89.7792 222.761H83.1761L87.7983 148.798C87.7983 148.798 86.4352 133.953 93.4109 125.193L95.1089 120.517L118.6 120.172Z" fill="#2F2E41"/>
<path d="M84.3204 135.986C85.019 135.804 85.6674 135.479 86.2199 135.033C86.7724 134.587 87.2155 134.03 87.5181 133.403C87.8207 132.776 87.9753 132.093 87.9711 131.403C87.967 130.713 87.8041 130.032 87.4939 129.408L98.1684 96.2322L90.3169 94.7485L80.5541 127.268C79.4894 127.834 78.6795 128.753 78.2779 129.85C77.8763 130.947 77.9109 132.147 78.3751 133.222C78.8394 134.296 79.701 135.171 80.7968 135.681C81.8925 136.19 83.1463 136.299 84.3204 135.986H84.3204Z" fill="#FFB6B6"/>
<path d="M98.4469 116.905L115.743 116.586C116.238 116.576 116.715 116.412 117.102 116.119C117.489 115.826 117.765 115.419 117.887 114.963C118.814 111.463 120.854 102.342 119.772 93.258C119.558 91.4982 118.977 89.7971 118.061 88.2553C117.146 86.7136 115.916 85.3625 114.443 84.282C112.97 83.2015 111.285 82.4136 109.487 81.9648C107.69 81.5161 105.816 81.4156 103.977 81.6693C102.037 81.9341 100.177 82.5869 98.5202 83.585C96.8633 84.5831 95.4466 85.9038 94.3628 87.4606C93.2791 89.0173 92.5529 90.7749 92.2318 92.618C91.9107 94.4612 92.0021 96.3482 92.4999 98.1553C94.6771 106.037 95.9069 111.676 96.1551 114.915C96.1919 115.384 96.3884 115.828 96.7148 116.18C97.0411 116.532 97.4793 116.772 97.9624 116.864C98.1061 116.891 98.2523 116.905 98.3988 116.905C98.4148 116.905 98.4308 116.905 98.4469 116.905Z" fill="#E4E4E4"/>
<path d="M136.15 69.0855C136.269 69.2997 136.406 69.5031 136.558 69.694L129.595 91.3607L124.323 92.7191L124.944 100.98L134.466 99.4865C135.235 99.3658 135.957 98.9966 136.521 98.4342C137.086 97.8718 137.465 97.1466 137.599 96.3675L141.985 70.9758C142.872 70.5823 143.633 69.9291 144.165 69.103C144.697 68.2769 144.976 67.3171 144.965 66.3513C144.954 65.3855 144.652 64.4594 144.102 63.6962C143.551 62.933 142.776 62.3689 141.881 62.079C140.986 61.789 140.012 61.7869 139.09 62.0729C138.168 62.3589 137.341 62.9195 136.719 63.6801C136.097 64.4407 135.709 65.3653 135.607 66.3309C135.506 67.2965 135.695 68.2573 136.15 69.0855L136.15 69.0855Z" fill="#FFB6B6"/>
<path d="M130.912 92.0771C130.842 91.8016 130.711 91.5451 130.527 91.3251C130.343 91.1051 130.111 90.9268 129.846 90.8024L120.606 86.4551C119.369 85.6318 117.831 85.3198 116.329 85.5874C114.827 85.855 113.484 86.6804 112.595 87.8826C111.705 89.0848 111.341 90.5655 111.583 92.0001C111.826 93.4347 112.654 94.706 113.886 95.5352L121.377 102.316C121.591 102.51 121.847 102.656 122.127 102.745C122.407 102.833 122.706 102.863 123.002 102.831C123.298 102.799 123.585 102.706 123.843 102.559C124.101 102.412 124.324 102.214 124.498 101.978L130.583 93.7053C130.756 93.47 130.875 93.2027 130.932 92.9217C130.989 92.6407 130.982 92.3526 130.912 92.0771Z" fill="#E4E4E4"/>
<path d="M99.5876 104.875C99.8515 104.743 100.082 104.558 100.264 104.332C100.446 104.107 100.575 103.847 100.642 103.571L102.986 93.8981C103.544 92.5446 103.517 91.0354 102.91 89.7012C102.302 88.3671 101.165 87.3171 99.7463 86.7813C98.328 86.2456 96.7447 86.2679 95.3436 86.8433C93.9425 87.4188 92.838 88.5004 92.2722 89.8511L87.0684 98.487C86.9199 98.7334 86.8289 99.0075 86.8015 99.2905C86.7741 99.5736 86.8111 99.8589 86.9098 100.127C87.0086 100.395 87.1668 100.64 87.3737 100.845C87.5806 101.049 87.8314 101.209 88.1089 101.313L97.8623 104.966C98.1398 105.07 98.4376 105.116 98.7353 105.1C99.0331 105.084 99.3238 105.007 99.5876 104.875Z" fill="#E4E4E4"/>
<path d="M91.1969 59.9223C90.396 58.1351 91.7733 55.861 94.273 54.8431C96.7728 53.8252 99.4485 54.4488 100.249 56.2361C101.05 58.0233 99.6729 60.2974 97.1732 61.3153C94.6734 62.3332 91.9977 61.7096 91.1969 59.9223Z" fill="#2F2E41"/>
<path d="M98.0106 72.969C95.3364 68.3055 97.1343 62.4584 102.026 59.9092C106.918 57.3599 113.052 59.0738 115.726 63.7372C118.4 68.4007 116.602 74.2477 111.71 76.797C106.818 79.3463 100.685 77.6324 98.0106 72.969Z" fill="#FFB6B6"/>
<path d="M101.331 57.3313H112.877C113.724 57.3209 114.543 57.6159 115.171 58.1572C115.799 58.6986 116.189 59.4462 116.263 60.2502C116.293 60.6774 116.23 61.1059 116.079 61.5092C115.928 61.9125 115.692 62.2819 115.385 62.5946C115.078 62.9072 114.707 63.1565 114.295 63.3269C113.883 63.4974 113.439 63.5853 112.99 63.5853C112.12 63.5853 111.285 63.9148 110.67 64.5012C110.055 65.0876 109.709 65.883 109.709 66.7123V79.533H91.6682V66.5424C91.6682 65.3328 91.9182 64.135 92.4037 63.0175C92.8893 61.8999 93.601 60.8845 94.4983 60.0292C95.3955 59.1739 96.4607 58.4954 97.633 58.0325C98.8053 57.5696 100.062 57.3313 101.331 57.3313Z" fill="#2F2E41"/>
<path d="M23.0566 47.1156C35.7904 47.1156 46.1132 36.5684 46.1132 23.5578C46.1132 10.5472 35.7904 0 23.0566 0C10.3228 0 0 10.5472 0 23.5578C0 36.5684 10.3228 47.1156 23.0566 47.1156Z" fill="#E4E4E4"/>
<path d="M23.0566 44.1082C34.1295 44.1082 43.1058 35.1318 43.1058 24.059C43.1058 12.9861 34.1295 4.00977 23.0566 4.00977C11.9837 4.00977 3.00739 12.9861 3.00739 24.059C3.00739 35.1318 11.9837 44.1082 23.0566 44.1082Z" fill="#63FF85"/>
<path d="M21.2778 32.0784C21.2423 32.0784 21.2067 32.0775 21.171 32.0757C20.8563 32.0601 20.5486 31.9747 20.269 31.8253C19.9895 31.6759 19.7446 31.4661 19.5513 31.2102L16.499 27.1741C16.1436 26.703 15.9844 26.1062 16.0563 25.5146C16.1282 24.9229 16.4253 24.3848 16.8825 24.0181L16.9923 23.9302C17.4503 23.5647 18.0306 23.401 18.6059 23.4749C19.1812 23.5489 19.7045 23.8544 20.061 24.3246C20.233 24.5521 20.4508 24.7387 20.6995 24.8716C20.9481 25.0045 21.2217 25.0805 21.5016 25.0946C21.7815 25.1086 22.061 25.0603 22.321 24.9529C22.5811 24.8455 22.8155 24.6816 23.0082 24.4724L29.2059 17.7438C29.4034 17.5294 29.64 17.3571 29.9022 17.2367C30.1645 17.1163 30.4472 17.0503 30.7343 17.0423C31.0214 17.0344 31.3071 17.0846 31.5753 17.1902C31.8435 17.2959 32.0888 17.4548 32.2973 17.6579L32.3985 17.7565C32.8195 18.1668 33.0648 18.7322 33.0804 19.3284C33.096 19.9246 32.8808 20.5028 32.4819 20.9358L22.8648 31.3761C22.6606 31.598 22.4146 31.7747 22.1417 31.8955C21.8688 32.0162 21.5749 32.0785 21.2778 32.0784Z" fill="white"/>
<path d="M123.057 47.1156C135.79 47.1156 146.113 36.5684 146.113 23.5578C146.113 10.5472 135.79 0 123.057 0C110.323 0 100 10.5472 100 23.5578C100 36.5684 110.323 47.1156 123.057 47.1156Z" fill="#E4E4E4"/>
<path d="M123 47C135.703 47 146 36.4787 146 23.5C146 10.5213 135.703 0 123 0C110.297 0 100 10.5213 100 23.5C100 36.4787 110.297 47 123 47Z" fill="#E4E4E4"/>
<path d="M123 43C133.493 43 142 34.2696 142 23.5C142 12.7304 133.493 4 123 4C112.507 4 104 12.7304 104 23.5C104 34.2696 112.507 43 123 43Z" fill="white"/>
<path d="M222 47C234.703 47 245 36.4787 245 23.5C245 10.5213 234.703 0 222 0C209.297 0 199 10.5213 199 23.5C199 36.4787 209.297 47 222 47Z" fill="#E4E4E4"/>
<path d="M222 43C232.493 43 241 34.2696 241 23.5C241 12.7304 232.493 4 222 4C211.507 4 203 12.7304 203 23.5C203 34.2696 211.507 43 222 43Z" fill="white"/>
</svg>
