<svg width="23" height="16" viewBox="0 0 23 16" fill="none" xmlns="http://www.w3.org/2000/svg">
<path d="M1.65625 12.5881V13.0881H2.15625H9.34375H9.84375V12.5881C9.84375 10.9054 9.06256 9.39558 7.85369 8.56488C8.20331 8.05084 8.40625 7.41017 8.40625 6.72489C8.40625 5.1372 7.28452 3.71047 5.75 3.71047C4.21559 3.71047 3.09375 5.13706 3.09375 6.72489C3.09375 7.41024 3.29669 8.05085 3.6463 8.56485C2.43744 9.39557 1.65625 10.9053 1.65625 12.5881ZM20.8438 13.1315H21.3438V12.6315V10.1052V9.60516H20.8438H13.6562H13.1562V10.1052V12.6315V13.1315H13.6562H20.8438ZM20.8438 8.07884H21.3438V7.57884V5.05253V4.55253H20.8438H13.6562H13.1562V5.05253V7.57884V8.07884H13.6562H20.8438ZM0.5 15.5V0.5H22.5V15.5H0.5Z" fill="white" stroke="#BFBABA"/>
</svg>
