<svg width="20" height="16" viewBox="0 0 20 16" fill="none" xmlns="http://www.w3.org/2000/svg">
<path d="M2.32422 0.283203L1.42578 1.0918L5.3125 4.57227L12.2461 10.8125L13.4375 11.9023L17.6758 15.7168L18.5742 14.9082L14.6875 11.4102C17.334 10.2302 19.1089 8.479 19.2188 8.36914L19.5898 8L19.2188 7.63086C19.0503 7.46167 15.0537 3.5 10 3.5C8.77686 3.5 7.62207 3.7417 6.5625 4.09766L2.32422 0.283203ZM10 4.625C11.3452 4.625 12.6172 4.96558 13.75 5.43359C14.1528 6.04004 14.375 6.72559 14.375 7.4375C14.375 8.45923 13.9355 9.39307 13.2227 10.0918L11.4453 8.49219C11.7065 8.20435 11.875 7.8396 11.875 7.4375C11.875 6.50586 11.0352 5.75 10 5.75C9.55322 5.75 9.14795 5.90161 8.82812 6.13672L7.55859 4.99414C8.33496 4.77881 9.14795 4.625 10 4.625ZM4.17969 5.13477C2.17529 6.24438 0.874024 7.53638 0.78125 7.63086L0.410156 8L0.78125 8.36914C0.942383 8.53174 4.64356 12.177 9.41406 12.4648C9.60693 12.4824 9.80225 12.5 10 12.5C10.1978 12.5 10.3931 12.4824 10.5859 12.4648C11.1011 12.4341 11.604 12.3726 12.0898 12.2715L10.9766 11.2695C10.6592 11.3354 10.3369 11.375 10 11.375C7.58789 11.375 5.625 9.6084 5.625 7.4375C5.625 7.13867 5.66895 6.84644 5.74219 6.55859L4.17969 5.13477ZM4.53125 6.27734C4.43115 6.65747 4.375 7.04419 4.375 7.4375C4.375 8.41528 4.68018 9.31616 5.21484 10.0918C3.78418 9.35352 2.69043 8.48779 2.12891 8C2.59522 7.59351 3.43506 6.91895 4.53125 6.27734ZM15.4688 6.27734C16.5649 6.91895 17.4023 7.59351 17.8711 8C17.3096 8.48779 16.1987 9.37109 14.7656 10.1094C15.3027 9.33374 15.625 8.41528 15.625 7.4375C15.625 7.04419 15.5688 6.65527 15.4688 6.27734Z" fill="#BFBABA"/>
</svg>
