<svg width="18" height="27" viewBox="0 0 18 27" fill="none" xmlns="http://www.w3.org/2000/svg">
<path d="M16.7818 4.49283C15.1576 1.67957 12.2485 0 8.99997 0C5.75152 0 2.84245 1.67957 1.21819 4.49283C-0.406064 7.30609 -0.406064 10.6652 1.21819 13.4785L8.50264 26.0956C8.60523 26.2732 8.7948 26.3827 8.99997 26.3827C9.20514 26.3827 9.39472 26.2732 9.4973 26.0956L16.7818 13.4785C18.4061 10.6652 18.4061 7.30609 16.7818 4.49283ZM15.7871 12.9042L8.99997 24.6598L2.21285 12.9042C0.796244 10.4505 0.796244 7.52075 2.21285 5.06711C3.62952 2.61341 6.16676 1.14857 8.99997 1.14857C11.8332 1.14857 14.3705 2.61341 15.7871 5.06711C17.2038 7.52075 17.2037 10.4505 15.7871 12.9042Z" fill="#BFBABA"/>
<path d="M8.99998 2.48975C5.41143 2.48975 2.4919 5.40928 2.4919 8.99783C2.4919 12.5864 5.41143 15.506 8.99998 15.506C12.5886 15.506 15.5081 12.5864 15.5081 8.99783C15.5081 5.40922 12.5886 2.48975 8.99998 2.48975ZM6.49447 13.7344V13.3504C6.49447 11.9688 7.61849 10.8447 9.00016 10.8447C10.3818 10.8447 11.5058 11.9687 11.5058 13.3504V13.7343C10.7576 14.1317 9.90475 14.3574 9.00004 14.3574C8.09539 14.3573 7.24261 14.1318 6.49447 13.7344ZM8.99998 6.50157C9.88063 6.50157 10.5971 7.21809 10.5971 8.09874C10.5971 8.97939 9.88069 9.69591 8.99998 9.69591C8.11927 9.69591 7.4028 8.97939 7.4028 8.09874C7.4028 7.21809 8.11933 6.50157 8.99998 6.50157ZM12.6303 12.9368C12.496 11.7505 11.7915 10.7351 10.7982 10.1711C11.3781 9.66726 11.7457 8.92535 11.7457 8.09874C11.7457 6.58475 10.514 5.353 8.99998 5.353C7.48593 5.353 6.25424 6.58475 6.25424 8.09874C6.25424 8.92541 6.62196 9.66738 7.20187 10.1712C6.20854 10.7352 5.5041 11.7507 5.3699 12.937C4.30724 11.957 3.64046 10.554 3.64046 8.99783C3.64046 6.04257 6.04472 3.63831 8.99998 3.63831C11.9552 3.63831 14.3596 6.04257 14.3596 8.99783C14.3596 10.5538 13.6928 11.9568 12.6303 12.9368Z" fill="#BFBABA"/>
</svg>
