<svg width="20" height="20" viewBox="0 0 20 20" fill="none" xmlns="http://www.w3.org/2000/svg">
<path d="M7.62354 10.1517C5.87823 11.0534 4.58801 12.9046 4.13639 15.1106C4.049 15.5374 4.19701 15.979 4.52529 16.2665L7.62354 10.1517ZM7.62354 10.1517C6.85469 9.38059 6.38453 8.25078 6.38453 7.01525C6.38453 4.79624 7.93074 2.85512 10 2.85512C12.0693 2.85512 13.6155 4.79624 13.6155 7.01525C13.6155 8.25058 13.1455 9.38021 12.3769 10.1513M7.62354 10.1517L12.3769 10.1513M12.3769 10.1513C14.1222 11.0529 15.4125 12.9041 15.8643 15.1098C15.9517 15.5363 15.8034 15.9784 15.4756 16.2658L15.4755 16.2658C13.9588 17.595 12.0339 18.3214 10 18.3214C7.96644 18.3214 6.04192 17.5952 4.52532 16.2666L12.3769 10.1513ZM0.5 10C0.5 4.75696 4.74413 0.5 10 0.5C15.2398 0.5 19.5 4.74495 19.5 10C19.5 15.2293 15.2715 19.5 10 19.5C4.75189 19.5 0.5 15.2489 0.5 10Z" fill="white" stroke="#BFBABA"/>
</svg>
