<svg width="20" height="19" viewBox="0 0 20 19" fill="none" xmlns="http://www.w3.org/2000/svg">
<g clip-path="url(#clip0_1975_432)">
<path d="M15.4444 8.44824H4.55556C3.69645 8.44824 3 9.18087 3 10.0846V15.8119C3 16.7156 3.69645 17.4482 4.55556 17.4482H15.4444C16.3036 17.4482 17 16.7156 17 15.8119V10.0846C17 9.18087 16.3036 8.44824 15.4444 8.44824Z" stroke="#BFBABA" stroke-width="1.5" stroke-linecap="round" stroke-linejoin="round"/>
<path d="M6 8.44805V5.24805C6 4.18718 6.42143 3.16977 7.17157 2.41962C7.92172 1.66947 8.93913 1.24805 10 1.24805C11.0609 1.24805 12.0783 1.66947 12.8284 2.41962C13.5786 3.16977 14 4.18718 14 5.24805V8.44805" stroke="#BFBABA" stroke-width="1.5" stroke-linecap="round" stroke-linejoin="round"/>
</g>
<defs>
<clipPath id="clip0_1975_432">
<rect width="20" height="18" fill="white" transform="translate(0 0.348145)"/>
</clipPath>
</defs>
</svg>
