<svg width="13" height="24" viewBox="0 0 13 24" fill="none" xmlns="http://www.w3.org/2000/svg">
<path d="M11.508 4.61283V2.31311C11.508 1.37553 10.7869 0.612793 9.9006 0.612793C9.01435 0.612793 8.29332 1.37553 8.29332 2.31311V4.51351H1.86962C0.930611 4.51351 0.166656 5.32166 0.166656 6.31499V21.9155C0.166656 22.9089 0.930611 23.717 1.86962 23.717H10.9514C11.8904 23.717 12.6543 22.9089 12.6543 21.9155V6.31499C12.6544 5.52785 12.1745 4.85742 11.508 4.61283ZM9.9006 1.36293C10.38 1.36293 10.7716 1.76245 10.7965 2.2631H9.00485C9.02967 1.76245 9.42129 1.36293 9.9006 1.36293ZM9.00244 3.01324H10.7989V4.51351H9.00244V3.01324ZM11.9453 21.9156C11.9453 22.4953 11.4994 22.9669 10.9514 22.9669H1.86962C1.32157 22.9669 0.875773 22.4953 0.875773 21.9156V6.31499C0.875773 5.73529 1.32162 5.26365 1.86962 5.26365H8.64788H10.9514C11.4995 5.26365 11.9453 5.73529 11.9453 6.31499V21.9156Z" fill="#BFBABA"/>
<path d="M10.6598 6.24854H2.16129C1.96543 6.24854 1.80673 6.41647 1.80673 6.6236V10.9712C1.80673 11.1783 1.96543 11.3463 2.16129 11.3463H10.6598C10.8557 11.3463 11.0144 11.1783 11.0144 10.9712V6.6236C11.0144 6.41647 10.8556 6.24854 10.6598 6.24854ZM9.40388 6.99867H9.7583L7.7931 10.5961H7.43868L9.40388 6.99867ZM6.61965 10.5961H3.17046L5.13566 6.99867H8.58485L6.61965 10.5961ZM4.31663 6.99867L2.5159 10.2951V6.99867H4.31663ZM8.61218 10.5961L10.3053 7.49672V10.5961H8.61218Z" fill="#BFBABA"/>
<path d="M3.12422 12.0566C2.39776 12.0566 1.80673 12.6819 1.80673 13.4503C1.80673 14.2188 2.39776 14.8441 3.12422 14.8441C3.85069 14.8441 4.44171 14.2188 4.44171 13.4503C4.44171 12.6819 3.85073 12.0566 3.12422 12.0566ZM3.12422 14.094C2.78876 14.094 2.51585 13.8053 2.51585 13.4504C2.51585 13.0955 2.78876 12.8068 3.12422 12.8068C3.45968 12.8068 3.7326 13.0955 3.7326 13.4504C3.73264 13.8053 3.45968 14.094 3.12422 14.094Z" fill="#BFBABA"/>
<path d="M9.69687 12.0566C8.9704 12.0566 8.37933 12.6819 8.37933 13.4503C8.37933 14.2188 8.9704 14.8441 9.69687 14.8441C10.4233 14.8441 11.0144 14.2188 11.0144 13.4503C11.0144 12.6819 10.4233 12.0566 9.69687 12.0566ZM9.69687 14.094C9.36136 14.094 9.08845 13.8053 9.08845 13.4504C9.08845 13.0955 9.36136 12.8068 9.69687 12.8068C10.0323 12.8068 10.3052 13.0955 10.3052 13.4504C10.3052 13.8053 10.0323 14.094 9.69687 14.094Z" fill="#BFBABA"/>
<path d="M6.41051 12.0566C5.68404 12.0566 5.09302 12.6819 5.09302 13.4503C5.09302 14.2188 5.68404 14.8441 6.41051 14.8441C7.13698 14.8441 7.728 14.2188 7.728 13.4503C7.728 12.6819 7.13698 12.0566 6.41051 12.0566ZM6.41051 14.094C6.07505 14.094 5.80213 13.8053 5.80213 13.4504C5.80213 13.0955 6.07505 12.8068 6.41051 12.8068C6.74597 12.8068 7.01888 13.0955 7.01888 13.4504C7.01888 13.8053 6.74597 14.094 6.41051 14.094Z" fill="#BFBABA"/>
<path d="M3.12422 19.1948C2.39776 19.1948 1.80673 19.82 1.80673 20.5885C1.80673 21.357 2.39776 21.9822 3.12422 21.9822C3.85069 21.9822 4.44171 21.357 4.44171 20.5885C4.44171 19.82 3.85073 19.1948 3.12422 19.1948ZM3.12422 21.2321C2.78876 21.2321 2.51585 20.9434 2.51585 20.5886C2.51585 20.2337 2.78876 19.945 3.12422 19.945C3.45968 19.945 3.7326 20.2337 3.7326 20.5886C3.7326 20.9434 3.45968 21.2321 3.12422 21.2321Z" fill="#BFBABA"/>
<path d="M9.69687 19.1948C8.9704 19.1948 8.37933 19.82 8.37933 20.5885C8.37933 21.357 8.9704 21.9822 9.69687 21.9822C10.4233 21.9822 11.0144 21.357 11.0144 20.5885C11.0144 19.82 10.4233 19.1948 9.69687 19.1948ZM9.69687 21.2321C9.36136 21.2321 9.08845 20.9434 9.08845 20.5886C9.08845 20.2337 9.36136 19.945 9.69687 19.945C10.0323 19.945 10.3052 20.2337 10.3052 20.5886C10.3052 20.9434 10.0323 21.2321 9.69687 21.2321Z" fill="#BFBABA"/>
<path d="M6.41051 19.1948C5.68404 19.1948 5.09302 19.82 5.09302 20.5885C5.09302 21.357 5.68404 21.9822 6.41051 21.9822C7.13698 21.9822 7.728 21.357 7.728 20.5885C7.728 19.82 7.13698 19.1948 6.41051 19.1948ZM6.41051 21.2321C6.07505 21.2321 5.80213 20.9434 5.80213 20.5886C5.80213 20.2337 6.07505 19.945 6.41051 19.945C6.74597 19.945 7.01888 20.2337 7.01888 20.5886C7.01888 20.9434 6.74597 21.2321 6.41051 21.2321Z" fill="#BFBABA"/>
<path d="M3.12422 15.6255C2.39776 15.6255 1.80673 16.2507 1.80673 17.0192C1.80673 17.7877 2.39776 18.4129 3.12422 18.4129C3.85069 18.4129 4.44171 17.7877 4.44171 17.0192C4.44171 16.2507 3.85073 15.6255 3.12422 15.6255ZM3.12422 17.6628C2.78876 17.6628 2.51585 17.3741 2.51585 17.0192C2.51585 16.6643 2.78876 16.3756 3.12422 16.3756C3.45968 16.3756 3.7326 16.6643 3.7326 17.0192C3.73264 17.3741 3.45968 17.6628 3.12422 17.6628Z" fill="#BFBABA"/>
<path d="M9.69687 15.6255C8.9704 15.6255 8.37933 16.2507 8.37933 17.0192C8.37933 17.7877 8.9704 18.4129 9.69687 18.4129C10.4233 18.4129 11.0144 17.7877 11.0144 17.0192C11.0144 16.2507 10.4233 15.6255 9.69687 15.6255ZM9.69687 17.6628C9.36136 17.6628 9.08845 17.3741 9.08845 17.0192C9.08845 16.6643 9.36136 16.3756 9.69687 16.3756C10.0323 16.3756 10.3052 16.6643 10.3052 17.0192C10.3052 17.3741 10.0323 17.6628 9.69687 17.6628Z" fill="#BFBABA"/>
<path d="M6.41051 15.6255C5.68404 15.6255 5.09302 16.2507 5.09302 17.0192C5.09302 17.7877 5.68404 18.4129 6.41051 18.4129C7.13698 18.4129 7.728 17.7877 7.728 17.0192C7.728 16.2507 7.13698 15.6255 6.41051 15.6255ZM6.41051 17.6628C6.07505 17.6628 5.80213 17.3741 5.80213 17.0192C5.80213 16.6643 6.07505 16.3756 6.41051 16.3756C6.74597 16.3756 7.01888 16.6643 7.01888 17.0192C7.01888 17.3741 6.74597 17.6628 6.41051 17.6628Z" fill="#BFBABA"/>
</svg>
